<svg xmlns="http://www.w3.org/2000/svg" viewBox="0 0 500 500"><g id="freepik--background-complete--inject-91"><rect y="382.4" width="500" height="0.25" style="fill:#ebebeb"></rect><rect x="416.78" y="398.49" width="33.12" height="0.25" style="fill:#ebebeb"></rect><rect x="322.53" y="401.21" width="8.69" height="0.25" style="fill:#ebebeb"></rect><rect x="396.59" y="389.21" width="19.19" height="0.25" style="fill:#ebebeb"></rect><rect x="52.46" y="390.89" width="43.19" height="0.25" style="fill:#ebebeb"></rect><rect x="104.56" y="390.89" width="6.33" height="0.25" style="fill:#ebebeb"></rect><rect x="131.47" y="395.11" width="93.68" height="0.25" style="fill:#ebebeb"></rect><path d="M237,337.8H43.91a5.71,5.71,0,0,1-5.7-5.71V60.66A5.71,5.71,0,0,1,43.91,55H237a5.71,5.71,0,0,1,5.71,5.71V332.09A5.71,5.71,0,0,1,237,337.8ZM43.91,55.2a5.46,5.46,0,0,0-5.45,5.46V332.09a5.46,5.46,0,0,0,5.45,5.46H237a5.47,5.47,0,0,0,5.46-5.46V60.66A5.47,5.47,0,0,0,237,55.2Z" style="fill:#ebebeb"></path><path d="M453.31,337.8H260.21a5.72,5.72,0,0,1-5.71-5.71V60.66A5.72,5.72,0,0,1,260.21,55h193.1A5.71,5.71,0,0,1,459,60.66V332.09A5.71,5.71,0,0,1,453.31,337.8ZM260.21,55.2a5.47,5.47,0,0,0-5.46,5.46V332.09a5.47,5.47,0,0,0,5.46,5.46h193.1a5.47,5.47,0,0,0,5.46-5.46V60.66a5.47,5.47,0,0,0-5.46-5.46Z" style="fill:#ebebeb"></path><path d="M388.82,365c.24-2.85-.15-6.56-3.48-7.66-5.66-1.86-9-6.24-8.82-11.19s-5.76-9.77-10.22-5.13-3.87-3.56-9.82-5.56-11,2.85-9.36,7.27-4.24,7.18-11.27,3.42-14.77,3.08-13.28,8.44.27,5.95-4.18,4.16c-3.59-1.44-9.48,1.59-10.13,6.25Z" style="fill:#e0e0e0"></path><path d="M288.3,365c.27-2.26.15-5.56-2.65-6.49-4.39-1.44-7-4.84-6.85-8.69s-4.47-7.58-7.93-4-3-2.77-7.62-4.31-8.54,2.2-7.27,5.64-3.3,5.57-8.75,2.65-11.46,2.4-10.31,6.55.21,4.62-3.24,3.24c-2.93-1.18-7.79,1.47-7.9,5.39Z" style="fill:#e0e0e0"></path><path d="M55.57,365H158.28c1.45-4.82-2.29-10.6-6.36-11.41-5-1-10-9.8-10.26-15.4s-9.24-22.83-23.24-12.19-9.74,1.57-19.87-1.42S82,330.16,86.48,336.61c0,0-10.18-2.55-14.37,6.95s0,15.4,0,15.4S59.25,358.58,55.57,365Z" style="fill:#e0e0e0"></path><path d="M297.12,95.4A4.83,4.83,0,0,1,302,90.57a4.54,4.54,0,0,1,1.39.21,10.45,10.45,0,0,1-.11-1.49,10.23,10.23,0,0,1,10.23-10.23,10.62,10.62,0,0,1,1.89.18,8.93,8.93,0,0,1,16.57,4.52h.15a8.24,8.24,0,1,1,0,16.48H301.82A4.84,4.84,0,0,1,297.12,95.4Z" style="fill:#f5f5f5"></path><path d="M126.9,123.88a4.83,4.83,0,0,1,4.83-4.83,4.48,4.48,0,0,1,1.38.21,10.46,10.46,0,0,1-.1-1.49,10.23,10.23,0,0,1,10.23-10.23,10.6,10.6,0,0,1,1.88.18,8.94,8.94,0,0,1,16.58,4.52h.15a8.24,8.24,0,1,1,0,16.48H131.59A4.82,4.82,0,0,1,126.9,123.88Z" style="fill:#f5f5f5"></path><path d="M236.51,109.87a3,3,0,0,1,3.87-2.87,7,7,0,0,1-.07-.93,6.35,6.35,0,0,1,6.36-6.35,6.45,6.45,0,0,1,1.17.1,5.56,5.56,0,0,1,10.31,2.81h.09a5.13,5.13,0,1,1,0,10.25H239.43A3,3,0,0,1,236.51,109.87Z" style="fill:#f5f5f5"></path><path d="M70.63,104a3,3,0,0,1,3.87-2.88,7,7,0,0,1-.07-.92,6.36,6.36,0,0,1,6.36-6.36A6.45,6.45,0,0,1,82,94a5.56,5.56,0,0,1,10.31,2.81h.09a5.13,5.13,0,0,1,0,10.25H73.55A3,3,0,0,1,70.63,104Z" style="fill:#f5f5f5"></path><path d="M405.46,122.15a3,3,0,0,1,3.86-2.87,7,7,0,0,1-.06-.92,6.35,6.35,0,0,1,6.36-6.36,6.45,6.45,0,0,1,1.17.11,5.55,5.55,0,0,1,10.3,2.81h.1a5.13,5.13,0,0,1,0,10.25H408.38A3,3,0,0,1,405.46,122.15Z" style="fill:#f5f5f5"></path><path d="M75.64,207.79a9.31,9.31,0,0,1-.28-1.88c-.23-3.89-4-3.28-7.11-3.81-2.47-.41,4.07-6.65-.91-8.67a4.37,4.37,0,0,1-2.41-1.67A2.85,2.85,0,0,1,66,188.3a6.66,6.66,0,0,1,3.78-.94c.81-1,.15-2.48-.63-3.49s-1.75-2.15-1.45-3.4c.45-1.88,3.07-1.94,5-1.58.7-1.13.68-2.55,1-3.84s1.37-2.65,2.69-2.49,2,1.56,3.24,1.85c1.42.34,2.65-.92,3.76-1.86s3.07-1.53,3.83-.29c.46.74.19,1.78.67,2.51.82,1.27,2.79.48,4-.42s3.16-1.71,4-.46a5.17,5.17,0,0,1,.47,1.3c.58,1.66,2.38,2.49,3.78,3.56s2.51,3.19,1.32,4.49c-.58.64-1.61.9-1.9,1.72-.36,1,.68,1.94,1.51,2.64,1.38,1.17,1.63,4.68-.19,5.64-.77.4-1.89.52-2.08,1.37s.6,1.34,1.11,1.92a3.61,3.61,0,0,1-1.11,5.38c-.43.21-1,.38-1.13.84a1.72,1.72,0,0,0,.1,1,5.33,5.33,0,0,1,.18,1.95,1,1,0,0,1-.24.61,1,1,0,0,1-.58.16c-2.63.12-3.89-.81-5.5,1.48a1.79,1.79,0,0,1-.55.58,1.74,1.74,0,0,1-.72.18c-1.81.15-3-1-4.64-1.19-2.29-.29-2.78.89-4.8,1.84C77.78,210.87,76.24,210,75.64,207.79Z" style="fill:#ebebeb"></path><path d="M105.92,204.52a8.63,8.63,0,0,1-.29-1.88c-.23-3.9-3.95-3.28-7.11-3.81-2.47-.41,4.07-6.65-.91-8.67a4.37,4.37,0,0,1-2.41-1.67A2.85,2.85,0,0,1,96.29,185a6.66,6.66,0,0,1,3.78-.94c.82-1,.15-2.48-.63-3.49s-1.75-2.16-1.45-3.4c.45-1.88,3.07-1.95,5-1.58.7-1.14.69-2.55,1-3.84s1.36-2.65,2.69-2.49,2,1.56,3.23,1.85c1.42.34,2.65-.92,3.76-1.86s3.07-1.53,3.83-.29c.46.74.19,1.78.67,2.51.82,1.27,2.79.48,4-.42s3.16-1.71,4-.46a5.19,5.19,0,0,1,.48,1.3c.57,1.66,2.37,2.49,3.77,3.56s2.51,3.19,1.33,4.49c-.59.64-1.62.9-1.91,1.72-.36,1,.68,1.94,1.51,2.64,1.38,1.17,1.63,4.68-.19,5.64-.77.4-1.89.52-2.07,1.36s.59,1.34,1.1,1.93a3.6,3.6,0,0,1-1.11,5.38c-.43.21-1,.38-1.13.84a1.72,1.72,0,0,0,.1,1,5.33,5.33,0,0,1,.18,1.95.9.9,0,0,1-.24.61.94.94,0,0,1-.58.16c-2.63.12-3.89-.81-5.5,1.48a1.9,1.9,0,0,1-.55.58,1.74,1.74,0,0,1-.72.18c-1.81.15-3-1-4.64-1.19-2.29-.29-2.78.89-4.79,1.84C108.05,207.6,106.51,206.68,105.92,204.52Z" style="fill:#ebebeb"></path><path d="M108.83,185.24a9.2,9.2,0,0,1-.28-1.88c-.23-3.89-4-3.28-7.11-3.8-2.47-.42,4.07-6.66-.91-8.67a4.43,4.43,0,0,1-2.41-1.68,2.83,2.83,0,0,1,1.09-3.45,6.57,6.57,0,0,1,3.78-.95c.81-1,.15-2.48-.63-3.49s-1.75-2.15-1.46-3.4c.45-1.88,3.08-1.94,5-1.58.7-1.13.68-2.55,1-3.84s1.37-2.65,2.69-2.48,2,1.56,3.24,1.84c1.42.34,2.65-.92,3.76-1.86s3.06-1.53,3.83-.29c.46.74.19,1.78.66,2.51.83,1.27,2.79.48,4-.42s3.16-1.71,4-.46a5.17,5.17,0,0,1,.47,1.3c.58,1.66,2.38,2.49,3.78,3.56s2.51,3.19,1.32,4.49c-.58.64-1.61.9-1.9,1.72-.36,1,.68,1.94,1.51,2.64,1.38,1.18,1.62,4.68-.2,5.64-.76.4-1.88.52-2.07,1.37s.6,1.34,1.11,1.92a3.62,3.62,0,0,1-1.11,5.38c-.44.21-1,.38-1.14.84a1.81,1.81,0,0,0,.11,1,5.14,5.14,0,0,1,.17,1.95.89.89,0,0,1-.23.61,1,1,0,0,1-.58.16c-2.63.12-3.9-.81-5.5,1.48a1.9,1.9,0,0,1-.55.58,1.63,1.63,0,0,1-.72.18c-1.81.15-3-1-4.64-1.19-2.29-.29-2.78.89-4.8,1.84C111,188.32,109.43,187.4,108.83,185.24Z" style="fill:#ebebeb"></path><path d="M128.77,194.84a9.2,9.2,0,0,1-.28-1.88c-.23-3.89-4-3.27-7.11-3.8-2.47-.42,4.07-6.66-.91-8.67a4.43,4.43,0,0,1-2.41-1.68,2.83,2.83,0,0,1,1.09-3.45,6.67,6.67,0,0,1,3.78-1c.81-1,.15-2.48-.63-3.48s-1.75-2.16-1.46-3.41c.45-1.87,3.08-1.94,5-1.58.7-1.13.68-2.55,1-3.84s1.37-2.64,2.69-2.48,2,1.56,3.24,1.85c1.42.33,2.65-.93,3.76-1.87s3.06-1.53,3.83-.29c.46.75.19,1.78.66,2.51.83,1.27,2.79.48,4-.41s3.16-1.72,4-.47a5.17,5.17,0,0,1,.47,1.3c.58,1.67,2.38,2.49,3.78,3.56s2.51,3.19,1.32,4.49c-.58.65-1.61.91-1.9,1.72-.36,1,.68,1.94,1.51,2.65,1.38,1.17,1.63,4.67-.19,5.63-.77.4-1.89.53-2.08,1.37s.6,1.34,1.11,1.92A3.63,3.63,0,0,1,152,189c-.44.2-1,.38-1.13.83a1.71,1.71,0,0,0,.1,1,5.14,5.14,0,0,1,.17,2,.87.87,0,0,1-.23.61.92.92,0,0,1-.58.17c-2.63.11-3.9-.82-5.5,1.47a1.8,1.8,0,0,1-.55.58,1.6,1.6,0,0,1-.72.18c-1.81.15-3-1-4.64-1.19-2.29-.29-2.78.89-4.8,1.84C130.91,197.92,129.37,197,128.77,194.84Z" style="fill:#ebebeb"></path><path d="M148.93,190.41a8.72,8.72,0,0,1-.29-1.88c-.23-3.9-3.95-3.28-7.11-3.81-2.47-.41,4.07-6.65-.91-8.67a4.31,4.31,0,0,1-2.4-1.67,2.83,2.83,0,0,1,1.08-3.46,6.75,6.75,0,0,1,3.78-.95c.82-1,.16-2.47-.63-3.48s-1.75-2.16-1.45-3.4c.45-1.88,3.07-2,5-1.58.7-1.14.69-2.56,1-3.85s1.36-2.64,2.69-2.48,2,1.56,3.23,1.85c1.42.34,2.65-.92,3.76-1.86s3.07-1.53,3.84-.29c.46.74.18,1.78.66,2.51.83,1.27,2.79.48,4-.42s3.16-1.71,4-.46a5.19,5.19,0,0,1,.48,1.3c.57,1.66,2.37,2.49,3.77,3.56s2.51,3.19,1.33,4.49c-.59.64-1.62.9-1.91,1.72-.36,1,.69,1.94,1.51,2.64,1.38,1.17,1.63,4.68-.19,5.63-.77.41-1.89.53-2.07,1.37s.59,1.34,1.1,1.92a3.61,3.61,0,0,1-1.11,5.39c-.43.21-1,.38-1.13.84a1.72,1.72,0,0,0,.1,1,5.33,5.33,0,0,1,.18,2,.9.9,0,0,1-.24.61.94.94,0,0,1-.58.16c-2.62.12-3.89-.81-5.5,1.47a1.91,1.91,0,0,1-.54.59,1.83,1.83,0,0,1-.73.18c-1.81.15-3-1-4.64-1.19-2.29-.29-2.77.89-4.79,1.84C151.06,193.49,149.52,192.57,148.93,190.41Z" style="fill:#ebebeb"></path><path d="M149.19,212a7,7,0,0,1-.22-1.48c-.19-3.06-3.11-2.58-5.6-3-2-.33,3.2-5.24-.72-6.83a3.42,3.42,0,0,1-1.89-1.32,2.22,2.22,0,0,1,.85-2.72,5.28,5.28,0,0,1,3-.74c.64-.78.12-1.95-.5-2.75s-1.38-1.7-1.14-2.68c.35-1.47,2.42-1.53,3.91-1.24a10.84,10.84,0,0,0,.81-3c.27-1,1.08-2.08,2.12-2s1.58,1.23,2.54,1.45c1.12.27,2.09-.72,3-1.46s2.41-1.21,3-.23c.37.58.15,1.4.53,2,.65,1,2.19.37,3.15-.33s2.49-1.35,3.17-.37a4.35,4.35,0,0,1,.37,1c.45,1.31,1.87,2,3,2.8s2,2.51,1,3.53c-.46.51-1.27.72-1.49,1.36-.29.81.53,1.53,1.18,2.08,1.09.92,1.28,3.68-.15,4.44-.6.31-1.48.41-1.63,1.07s.47,1.06.87,1.52a2.85,2.85,0,0,1-.87,4.24c-.35.16-.77.3-.9.66a1.33,1.33,0,0,0,.09.8,4.17,4.17,0,0,1,.13,1.53.71.71,0,0,1-.18.49.74.74,0,0,1-.46.12c-2.07.1-3.07-.64-4.33,1.16a1.36,1.36,0,0,1-.43.46,1.23,1.23,0,0,1-.57.14c-1.42.12-2.35-.77-3.65-.93-1.81-.23-2.19.7-3.78,1.45C150.87,214.39,149.66,213.67,149.19,212Z" style="fill:#ebebeb"></path><path d="M160.48,204.52a9.31,9.31,0,0,1-.28-1.88c-.23-3.9-3.95-3.28-7.11-3.81-2.48-.41,4.07-6.65-.91-8.67a4.33,4.33,0,0,1-2.41-1.67,2.85,2.85,0,0,1,1.09-3.46,6.64,6.64,0,0,1,3.78-.94c.81-1,.15-2.48-.64-3.49s-1.75-2.16-1.45-3.4c.45-1.88,3.08-1.95,5-1.58.71-1.14.69-2.55,1-3.84s1.37-2.65,2.69-2.49,2,1.56,3.24,1.85c1.42.34,2.65-.92,3.76-1.86s3.06-1.53,3.83-.29c.46.74.19,1.78.66,2.51.83,1.27,2.79.48,4-.42s3.16-1.71,4-.46a5.17,5.17,0,0,1,.47,1.3c.58,1.66,2.38,2.49,3.78,3.56s2.51,3.19,1.32,4.49c-.58.64-1.61.9-1.9,1.72-.36,1,.68,1.94,1.51,2.64,1.37,1.17,1.62,4.68-.2,5.64-.76.4-1.88.52-2.07,1.36s.6,1.34,1.11,1.93a3.62,3.62,0,0,1-1.11,5.38c-.44.21-1,.38-1.14.84a1.73,1.73,0,0,0,.11,1,5.12,5.12,0,0,1,.17,1.95.89.89,0,0,1-.23.61,1,1,0,0,1-.58.16c-2.63.12-3.9-.81-5.5,1.48a2.17,2.17,0,0,1-.55.58,1.78,1.78,0,0,1-.72.18c-1.81.15-3-1-4.64-1.19-2.29-.29-2.78.89-4.8,1.84C162.62,207.6,161.08,206.68,160.48,204.52Z" style="fill:#ebebeb"></path><path d="M128.77,171.13a9.2,9.2,0,0,1-.28-1.88c-.23-3.89-4-3.28-7.11-3.81-2.47-.41,4.07-6.65-.91-8.66a4.43,4.43,0,0,1-2.41-1.68,2.83,2.83,0,0,1,1.09-3.45,6.59,6.59,0,0,1,3.78-1c.81-1,.15-2.48-.63-3.49s-1.75-2.15-1.46-3.4c.45-1.88,3.08-1.94,5-1.58.7-1.13.68-2.55,1-3.84s1.37-2.65,2.69-2.49,2,1.57,3.24,1.85c1.42.34,2.65-.92,3.76-1.86s3.06-1.53,3.83-.29c.46.74.19,1.78.66,2.51.83,1.27,2.79.48,4-.42s3.16-1.71,4-.46a5.17,5.17,0,0,1,.47,1.3c.58,1.66,2.38,2.49,3.78,3.56s2.51,3.19,1.32,4.49c-.58.64-1.61.9-1.9,1.72-.36,1,.68,1.94,1.51,2.64,1.38,1.18,1.63,4.68-.19,5.64-.77.4-1.89.52-2.08,1.37s.6,1.34,1.11,1.92a3.62,3.62,0,0,1-1.11,5.38c-.44.21-1,.38-1.13.84a1.72,1.72,0,0,0,.1,1,5.12,5.12,0,0,1,.17,1.95.89.89,0,0,1-.23.61,1,1,0,0,1-.58.16c-2.63.12-3.9-.81-5.5,1.48a1.9,1.9,0,0,1-.55.58,1.74,1.74,0,0,1-.72.18c-1.81.15-3-1-4.64-1.19-2.29-.29-2.78.89-4.8,1.84C130.91,174.21,129.37,173.29,128.77,171.13Z" style="fill:#ebebeb"></path><path d="M102.88,172.45a9.2,9.2,0,0,1-.28-1.88c-.23-3.89-3.95-3.27-7.11-3.8-2.47-.41,4.07-6.66-.91-8.67a4.38,4.38,0,0,1-2.41-1.68A2.83,2.83,0,0,1,93.26,153,6.75,6.75,0,0,1,97,152c.81-1,.15-2.47-.63-3.48s-1.75-2.16-1.46-3.4c.45-1.88,3.08-1.95,5-1.58.7-1.14.68-2.56,1-3.85s1.37-2.64,2.69-2.48,2,1.56,3.24,1.85c1.42.33,2.65-.92,3.76-1.87s3.06-1.53,3.83-.29c.46.75.19,1.78.66,2.51.83,1.27,2.79.49,4-.41s3.16-1.72,4-.47a5.31,5.31,0,0,1,.47,1.3c.58,1.67,2.38,2.5,3.78,3.56s2.51,3.19,1.32,4.49c-.58.65-1.61.91-1.9,1.73-.36,1,.68,1.93,1.51,2.64,1.38,1.17,1.63,4.67-.19,5.63-.77.4-1.89.53-2.08,1.37s.6,1.34,1.11,1.92a3.63,3.63,0,0,1-1.11,5.39c-.44.21-1,.38-1.13.83a1.71,1.71,0,0,0,.1,1,5.35,5.35,0,0,1,.18,1.95.91.91,0,0,1-.24.61.92.92,0,0,1-.58.17c-2.63.11-3.9-.82-5.5,1.47a1.8,1.8,0,0,1-.55.58,1.6,1.6,0,0,1-.72.18c-1.81.15-3-1-4.64-1.19-2.29-.29-2.78.89-4.8,1.84C105,175.53,103.48,174.61,102.88,172.45Z" style="fill:#ebebeb"></path><path d="M87.16,183.05a9.28,9.28,0,0,1-.29-1.88c-.23-3.9-4-3.28-7.11-3.81-2.47-.41,4.07-6.65-.91-8.67a4.34,4.34,0,0,1-2.4-1.67,2.83,2.83,0,0,1,1.08-3.46,6.66,6.66,0,0,1,3.78-.94c.82-1,.16-2.48-.63-3.49s-1.75-2.15-1.45-3.4c.45-1.88,3.07-1.94,5-1.58.7-1.13.69-2.55,1-3.84s1.36-2.65,2.69-2.49,2,1.56,3.23,1.85c1.42.34,2.65-.92,3.77-1.86s3.06-1.53,3.83-.29c.46.74.18,1.78.66,2.51.83,1.27,2.79.48,4-.42s3.16-1.71,4-.46a5.17,5.17,0,0,1,.47,1.3c.57,1.66,2.37,2.49,3.77,3.56s2.51,3.19,1.33,4.49c-.59.64-1.62.9-1.91,1.72-.36,1,.69,1.94,1.51,2.64,1.38,1.17,1.63,4.68-.19,5.64-.76.4-1.89.52-2.07,1.36s.59,1.34,1.1,1.93a3.61,3.61,0,0,1-1.1,5.38c-.44.21-1,.38-1.14.84a1.72,1.72,0,0,0,.1,1,5.33,5.33,0,0,1,.18,1.95.9.9,0,0,1-.24.61.94.94,0,0,1-.58.16c-2.62.12-3.89-.81-5.5,1.48a1.87,1.87,0,0,1-.54.58,1.83,1.83,0,0,1-.73.18c-1.81.15-3-1-4.64-1.19-2.29-.29-2.77.89-4.79,1.84C89.29,186.13,87.75,185.21,87.16,183.05Z" style="fill:#ebebeb"></path><path d="M91.93,196.44s6.57,9.3,8.84,12.24,13.61,21.32,15.15,33.47c.16,1.3.33,2.41.49,3.39-4.88,32.19-4.12,91.09-3.94,101.18h15.45c.14-11.37,1.45-115.31,1.94-118.49.51-3.36,7-16.14,16.95-21.4s18.6-22.64,18.6-22.64h-3.18s-5.9,10.66-14.29,16.56a31.47,31.47,0,0,1-3.78,2.23,53.42,53.42,0,0,0-3.33-18.79l-1.72,1.59c2.32,9.49,2,15.57,1.31,19.07a34.62,34.62,0,0,0-8.67,5.8c-8.71-11.32-13.6-37.2-13.6-37.2l-2.23,1.22a130.44,130.44,0,0,0,2.88,15.87c1.63,6.7,6.43,19.31,8.66,25a59.3,59.3,0,0,0-6.57,12.34,5.43,5.43,0,0,0-.84-1c-5.67-5.13-16.33-29.35-16.33-29.35-2.58-5.63,1.36-20.41,1.36-20.41h-3l-1.33,12.93-7.48-8.17-1.36,1.14,7.93,10.2,4.08,12.93L93.29,194.4Z" style="fill:#e6e6e6"></path><path d="M386.73,242.47a7.54,7.54,0,0,0,.21-1.44c.18-3,3-2.52,5.46-2.92,1.9-.32-3.12-5.11.7-6.66a3.32,3.32,0,0,0,1.84-1.28,2.17,2.17,0,0,0-.83-2.65,5.09,5.09,0,0,0-2.9-.73c-.62-.76-.12-1.9.49-2.67s1.34-1.66,1.11-2.61c-.34-1.44-2.36-1.5-3.81-1.22a10.37,10.37,0,0,1-.79-2.95c-.26-1-1-2-2.07-1.9s-1.54,1.2-2.48,1.42c-1.09.26-2-.71-2.89-1.43s-2.35-1.18-2.94-.22c-.35.57-.14,1.36-.5,1.92-.64,1-2.14.37-3.08-.32s-2.42-1.31-3.08-.36a4,4,0,0,0-.36,1c-.45,1.28-1.83,1.92-2.9,2.74s-1.93,2.44-1,3.44c.45.49,1.24.69,1.46,1.32.28.79-.52,1.49-1.15,2-1.06.9-1.25,3.59.14,4.32.59.31,1.45.4,1.59,1s-.45,1-.84,1.48a2.77,2.77,0,0,0,.85,4.13c.33.16.74.29.87.64a1.32,1.32,0,0,1-.08.78,4.23,4.23,0,0,0-.14,1.5.53.53,0,0,0,.63.59c2,.09,3-.62,4.22,1.13a1.4,1.4,0,0,0,.42.45,1.28,1.28,0,0,0,.55.14c1.39.11,2.3-.75,3.56-.91,1.76-.23,2.13.68,3.68,1.41C385.09,244.83,386.27,244.13,386.73,242.47Z" style="fill:#ebebeb"></path><path d="M363.5,240a6.8,6.8,0,0,0,.22-1.44c.18-3,3-2.52,5.46-2.92,1.89-.32-3.13-5.11.69-6.66a3.34,3.34,0,0,0,1.85-1.28,2.18,2.18,0,0,0-.83-2.65,5.12,5.12,0,0,0-2.91-.73c-.62-.76-.11-1.9.49-2.67s1.34-1.66,1.11-2.61c-.34-1.44-2.35-1.5-3.81-1.22a10.39,10.39,0,0,1-.79-2.94c-.26-1-1.05-2-2.06-1.91s-1.54,1.2-2.48,1.42-2-.71-2.89-1.43-2.35-1.18-2.94-.22c-.35.57-.14,1.36-.51,1.92-.63,1-2.14.37-3.08-.32s-2.42-1.31-3.08-.35a4.18,4.18,0,0,0-.36,1c-.44,1.28-1.82,1.92-2.9,2.74s-1.92,2.44-1,3.44c.45.49,1.23.69,1.46,1.32.28.79-.53,1.49-1.16,2-1.06.9-1.25,3.59.15,4.32.58.31,1.44.41,1.59,1.05s-.46,1-.85,1.48a2.77,2.77,0,0,0,.85,4.13c.34.16.75.29.87.64a1.32,1.32,0,0,1-.08.78,4,4,0,0,0-.13,1.5.66.66,0,0,0,.18.47.68.68,0,0,0,.44.12c2,.09,3-.62,4.22,1.13a1.4,1.4,0,0,0,.42.45,1.36,1.36,0,0,0,.56.14c1.38.11,2.29-.75,3.56-.91,1.76-.23,2.13.68,3.68,1.41C361.86,242.32,363,241.62,363.5,240Z" style="fill:#ebebeb"></path><path d="M361.26,225.16a6.61,6.61,0,0,0,.22-1.44c.18-3,3-2.51,5.46-2.92,1.89-.31-3.13-5.1.7-6.65a3.32,3.32,0,0,0,1.84-1.28,2.18,2.18,0,0,0-.83-2.65,5.11,5.11,0,0,0-2.9-.73c-.63-.76-.12-1.9.48-2.67s1.35-1.66,1.12-2.61c-.35-1.44-2.36-1.5-3.82-1.22a10.37,10.37,0,0,1-.79-3c-.26-1-1-2-2.06-1.9s-1.54,1.2-2.48,1.42-2-.71-2.89-1.43-2.35-1.18-2.94-.22c-.35.57-.14,1.36-.51,1.92-.63,1-2.14.37-3.07-.32s-2.43-1.31-3.09-.36a4.42,4.42,0,0,0-.36,1c-.44,1.28-1.82,1.92-2.89,2.73s-1.93,2.45-1,3.45c.45.49,1.24.69,1.46,1.32.28.79-.52,1.49-1.16,2-1.06.9-1.25,3.59.15,4.32.59.31,1.45.4,1.59,1.05s-.46,1-.85,1.47a2.78,2.78,0,0,0,.85,4.14c.34.16.75.29.87.64a1.32,1.32,0,0,1-.08.78,4.23,4.23,0,0,0-.13,1.5.67.67,0,0,0,.18.47.75.75,0,0,0,.44.12c2,.09,3-.62,4.22,1.13a1.64,1.64,0,0,0,.42.45,1.36,1.36,0,0,0,.56.14c1.39.11,2.29-.75,3.56-.92,1.76-.22,2.13.69,3.68,1.41C359.62,227.53,360.81,226.82,361.26,225.16Z" style="fill:#ebebeb"></path><path d="M346,232.53a6.7,6.7,0,0,0,.22-1.44c.18-3,3-2.51,5.46-2.92,1.89-.32-3.13-5.1.7-6.65a3.33,3.33,0,0,0,1.84-1.29,2.17,2.17,0,0,0-.83-2.65,5.18,5.18,0,0,0-2.9-.72c-.63-.76-.12-1.9.48-2.68s1.35-1.65,1.12-2.61c-.35-1.44-2.36-1.49-3.82-1.21a10.37,10.37,0,0,1-.79-3c-.26-1-1-2-2.06-1.9s-1.54,1.19-2.48,1.42-2-.71-2.89-1.44-2.35-1.17-2.94-.22c-.35.57-.14,1.37-.51,1.93-.63,1-2.14.37-3.07-.32s-2.43-1.32-3.09-.36a4.1,4.1,0,0,0-.36,1c-.44,1.28-1.82,1.91-2.89,2.73s-1.93,2.45-1,3.45c.45.49,1.24.69,1.46,1.32s-.52,1.49-1.16,2c-1.05.89-1.25,3.58.15,4.32.59.31,1.45.4,1.59,1s-.46,1-.85,1.47a2.77,2.77,0,0,0,.85,4.13c.34.17.75.3.87.65a1.32,1.32,0,0,1-.08.78,4.15,4.15,0,0,0-.13,1.49.64.64,0,0,0,.18.47.69.69,0,0,0,.44.13c2,.09,3-.63,4.22,1.13a1.64,1.64,0,0,0,.42.45,1.35,1.35,0,0,0,.56.13c1.39.12,2.29-.75,3.56-.91,1.76-.22,2.13.68,3.68,1.41C344.32,234.9,345.51,234.19,346,232.53Z" style="fill:#ebebeb"></path><path d="M330.5,229.13a6.7,6.7,0,0,0,.22-1.44c.18-3,3-2.52,5.45-2.92,1.9-.32-3.12-5.11.7-6.65a3.39,3.39,0,0,0,1.85-1.29,2.18,2.18,0,0,0-.83-2.65,5.2,5.2,0,0,0-2.91-.73c-.62-.75-.11-1.9.49-2.67s1.34-1.65,1.11-2.61c-.34-1.44-2.36-1.49-3.81-1.21a10.37,10.37,0,0,1-.79-3c-.26-1-1.05-2-2.06-1.91s-1.55,1.2-2.48,1.42c-1.09.26-2-.7-2.89-1.43s-2.35-1.17-2.94-.22c-.35.57-.14,1.37-.51,1.93-.63,1-2.14.37-3.08-.32s-2.42-1.32-3.08-.36a4.1,4.1,0,0,0-.36,1c-.44,1.27-1.82,1.91-2.9,2.73s-1.92,2.45-1,3.44c.44.5,1.23.7,1.46,1.33.28.78-.53,1.48-1.16,2-1.06.9-1.25,3.59.15,4.33.58.3,1.44.4,1.59,1.05s-.46,1-.85,1.47a2.77,2.77,0,0,0,.85,4.13c.33.16.75.29.87.64a1.31,1.31,0,0,1-.08.78,4,4,0,0,0-.13,1.5.66.66,0,0,0,.18.47.74.74,0,0,0,.44.13c2,.09,3-.63,4.22,1.13a1.36,1.36,0,0,0,.42.44,1.22,1.22,0,0,0,.56.14c1.38.12,2.29-.75,3.56-.91,1.75-.23,2.13.68,3.68,1.41C328.86,231.49,330,230.79,330.5,229.13Z" style="fill:#ebebeb"></path><path d="M330.3,245.67a6,6,0,0,0,.17-1.13c.14-2.36,2.39-2,4.3-2.3,1.49-.25-2.46-4,.55-5.24a2.67,2.67,0,0,0,1.45-1,1.71,1.71,0,0,0-.66-2.09,4,4,0,0,0-2.28-.57c-.49-.6-.09-1.5.38-2.11s1.06-1.3.88-2.05c-.27-1.14-1.86-1.18-3-1a8.45,8.45,0,0,1-.62-2.32c-.2-.78-.82-1.6-1.62-1.5s-1.22.94-1.95,1.12-1.61-.56-2.28-1.13-1.85-.92-2.31-.17c-.28.44-.11,1.07-.4,1.51-.5.77-1.69.29-2.43-.25s-1.9-1-2.42-.28a3,3,0,0,0-.29.79c-.35,1-1.43,1.5-2.28,2.15s-1.52,1.92-.8,2.71c.35.39,1,.54,1.15,1s-.41,1.17-.91,1.6c-.83.7-1,2.82.12,3.4.46.24,1.13.32,1.25.83s-.36.81-.67,1.16a2.18,2.18,0,0,0,.67,3.25c.26.13.59.23.69.51a1,1,0,0,1-.07.61,3.34,3.34,0,0,0-.1,1.18.55.55,0,0,0,.14.37.6.6,0,0,0,.35.1c1.59.07,2.35-.49,3.32.89a1.23,1.23,0,0,0,.33.35,1,1,0,0,0,.44.11c1.09.09,1.81-.59,2.8-.72,1.39-.18,1.68.54,2.9,1.11C329,247.53,329.94,247,330.3,245.67Z" style="fill:#ebebeb"></path><path d="M321.63,240a6.8,6.8,0,0,0,.22-1.44c.18-3,3-2.52,5.46-2.92,1.89-.32-3.13-5.11.7-6.66a3.32,3.32,0,0,0,1.84-1.28A2.17,2.17,0,0,0,329,225a5.11,5.11,0,0,0-2.9-.73c-.63-.76-.12-1.9.48-2.67S328,220,327.72,219c-.35-1.44-2.36-1.5-3.82-1.22a10.73,10.73,0,0,1-.79-2.94c-.26-1-1-2-2.06-1.91s-1.54,1.2-2.48,1.42-2-.71-2.89-1.43-2.35-1.18-2.94-.22c-.35.57-.14,1.36-.51,1.92-.63,1-2.14.37-3.07-.32s-2.43-1.31-3.08-.35a3.81,3.81,0,0,0-.37,1c-.44,1.28-1.82,1.92-2.89,2.74s-1.93,2.44-1,3.44c.45.49,1.24.69,1.46,1.32.28.79-.52,1.49-1.16,2-1.05.9-1.25,3.59.15,4.32.59.31,1.45.41,1.59,1.05s-.46,1-.85,1.48a2.78,2.78,0,0,0,.85,4.13c.34.16.75.29.87.64a1.24,1.24,0,0,1-.08.78,4.23,4.23,0,0,0-.13,1.5.7.7,0,0,0,.18.47.68.68,0,0,0,.44.12c2,.09,3-.62,4.22,1.13a1.51,1.51,0,0,0,.42.45,1.36,1.36,0,0,0,.56.14c1.39.11,2.29-.75,3.56-.91,1.76-.23,2.13.68,3.68,1.41C320,242.32,321.18,241.62,321.63,240Z" style="fill:#ebebeb"></path><path d="M346,214.34a6.7,6.7,0,0,0,.22-1.44c.18-3,3-2.52,5.46-2.92,1.89-.32-3.13-5.11.7-6.65a3.38,3.38,0,0,0,1.84-1.29,2.17,2.17,0,0,0-.83-2.65,5.19,5.19,0,0,0-2.9-.73c-.63-.76-.12-1.9.48-2.67s1.35-1.66,1.12-2.61c-.35-1.44-2.36-1.49-3.82-1.21a10.37,10.37,0,0,1-.79-2.95c-.26-1-1-2-2.06-1.91s-1.54,1.2-2.48,1.42-2-.71-2.89-1.43-2.35-1.17-2.94-.22c-.35.57-.14,1.36-.51,1.93-.63,1-2.14.36-3.07-.33s-2.43-1.31-3.09-.35a4.1,4.1,0,0,0-.36,1c-.44,1.27-1.82,1.91-2.89,2.73s-1.93,2.44-1,3.44c.45.5,1.24.7,1.46,1.32.28.79-.52,1.49-1.16,2-1.05.9-1.25,3.59.15,4.32.59.31,1.45.41,1.59,1.05s-.46,1-.85,1.48a2.77,2.77,0,0,0,.85,4.13c.34.16.75.29.87.64a1.32,1.32,0,0,1-.08.78,4.23,4.23,0,0,0-.13,1.5.66.66,0,0,0,.18.47.68.68,0,0,0,.44.12c2,.09,3-.62,4.22,1.14a1.6,1.6,0,0,0,.42.44,1.36,1.36,0,0,0,.56.14c1.39.11,2.29-.75,3.56-.91,1.76-.23,2.13.68,3.68,1.41C344.32,216.7,345.51,216,346,214.34Z" style="fill:#ebebeb"></path><path d="M365.83,215.35a8.09,8.09,0,0,0,.22-1.44c.17-3,3-2.51,5.45-2.92,1.9-.31-3.12-5.1.7-6.65a3.38,3.38,0,0,0,1.85-1.28,2.17,2.17,0,0,0-.84-2.65,5.09,5.09,0,0,0-2.9-.73c-.62-.76-.12-1.9.49-2.68s1.34-1.65,1.11-2.6c-.34-1.45-2.36-1.5-3.81-1.22a10.37,10.37,0,0,1-.79-3c-.26-1-1.05-2-2.07-1.9s-1.54,1.2-2.48,1.42-2-.71-2.89-1.43-2.35-1.18-2.93-.23c-.36.57-.15,1.37-.51,1.93-.64,1-2.14.37-3.08-.32s-2.42-1.31-3.08-.36a4,4,0,0,0-.36,1c-.45,1.28-1.83,1.92-2.9,2.73s-1.93,2.45-1,3.45c.45.49,1.24.69,1.46,1.32.28.78-.52,1.49-1.15,2-1.06.9-1.25,3.58.14,4.32.59.31,1.45.4,1.59,1.05s-.45,1-.84,1.47a2.78,2.78,0,0,0,.85,4.14c.33.16.74.29.87.64a1.32,1.32,0,0,1-.08.78,4.19,4.19,0,0,0-.14,1.5.68.68,0,0,0,.19.47.71.71,0,0,0,.44.12c2,.09,3-.62,4.22,1.13a1.51,1.51,0,0,0,.42.45,1.44,1.44,0,0,0,.55.14c1.39.11,2.3-.76,3.56-.92,1.76-.22,2.13.69,3.68,1.41C364.19,217.72,365.37,217,365.83,215.35Z" style="fill:#ebebeb"></path><path d="M377.89,223.48a6.61,6.61,0,0,0,.22-1.44c.18-3,3-2.51,5.46-2.92,1.89-.31-3.13-5.1.7-6.65a3.37,3.37,0,0,0,1.84-1.28,2.18,2.18,0,0,0-.83-2.66,5.18,5.18,0,0,0-2.9-.72c-.63-.76-.12-1.9.48-2.68s1.35-1.65,1.12-2.61c-.35-1.44-2.36-1.49-3.82-1.21a10.37,10.37,0,0,1-.79-2.95c-.26-1-1-2-2.06-1.9s-1.54,1.19-2.48,1.42-2-.71-2.89-1.43-2.35-1.18-2.94-.23c-.35.57-.14,1.37-.51,1.93-.63,1-2.14.37-3.07-.32s-2.43-1.32-3.09-.36a4.42,4.42,0,0,0-.36,1c-.44,1.28-1.82,1.91-2.89,2.73s-1.93,2.45-1,3.45c.45.49,1.24.69,1.46,1.32.28.78-.52,1.49-1.16,2-1.05.9-1.25,3.58.15,4.32.59.31,1.45.4,1.59,1.05s-.46,1-.85,1.47a2.78,2.78,0,0,0,.85,4.14c.34.16.75.29.87.64a1.25,1.25,0,0,1-.08.78,4.19,4.19,0,0,0-.13,1.5.68.68,0,0,0,.18.46.69.69,0,0,0,.44.13c2,.09,3-.62,4.22,1.13a1.64,1.64,0,0,0,.42.45,1.54,1.54,0,0,0,.56.14c1.39.11,2.29-.76,3.56-.92,1.76-.22,2.13.69,3.68,1.41C376.26,225.85,377.44,225.14,377.89,223.48Z" style="fill:#ebebeb"></path><path d="M374.24,233.76s-5.05,7.13-6.79,9.39S357,259.51,355.82,268.83c-.12,1-.25,1.85-.37,2.6,3.74,24.7,3.16,69.89,3,77.63H346.62c-.11-8.72-1.12-88.47-1.49-90.91s-5.35-12.39-13-16.42-14.28-17.37-14.28-17.37h2.44s4.53,8.18,11,12.7a23.65,23.65,0,0,0,2.89,1.72,41.13,41.13,0,0,1,2.56-14.42l1.32,1.22c-1.78,7.28-1.54,11.95-1,14.63a26.13,26.13,0,0,1,6.66,4.45c6.68-8.68,10.43-28.54,10.43-28.54l1.71.93a100.37,100.37,0,0,1-2.2,12.18c-1.25,5.14-4.94,14.82-6.65,19.22a45.45,45.45,0,0,1,5,9.47,4.08,4.08,0,0,1,.65-.78c4.35-3.93,12.53-22.51,12.53-22.51,2-4.32-1.05-15.66-1.05-15.66h2.29l1,9.92,5.74-6.27,1.05.87-6.09,7.83L365,241.24l8.18-9.05Z" style="fill:#e6e6e6"></path><path d="M57.28,363H449.88a7.92,7.92,0,0,1,7.92,7.92v11.92a0,0,0,0,1,0,0H49.36a0,0,0,0,1,0,0V370.95A7.92,7.92,0,0,1,57.28,363Z" style="fill:#e0e0e0"></path></g><g id="freepik--Shadow--inject-91"><ellipse id="freepik--path--inject-91" cx="250" cy="416.24" rx="193.89" ry="11.32" style="fill:#f5f5f5"></ellipse></g><g id="freepik--Plant--inject-91"><path d="M407.06,373.13s-1.88-13.83-10.73-15.34-6.18-8.2-8.48-10.79-8.33,5.05-3.17,12.45.94,5.07,3.17,11.95S407.87,384.6,407.06,373.13Z" style="fill:#263238"></path><path d="M407.06,373.13s-1.88-13.83-10.73-15.34-6.18-8.2-8.48-10.79-8.33,5.05-3.17,12.45.94,5.07,3.17,11.95S407.87,384.6,407.06,373.13Z" style="fill:#fff;opacity:0.2;isolation:isolate"></path><path d="M404.12,382.47a.48.48,0,0,1-.46-.32c-.06-.15-5.63-15-.27-37.52A96.06,96.06,0,0,1,410.32,326c5.21-11.31,9.33-20.24,2.95-37.69-2-5.51-4.11-10.66-6.14-15.63-7.59-18.67-13.59-33.42-7.15-47.32a.5.5,0,0,1,.67-.24.49.49,0,0,1,.24.66c-6.26,13.51-.34,28.08,7.17,46.52,2,5,4.13,10.14,6.15,15.67,6.52,17.83,2.12,27.39-3,38.45-2.52,5.48-5.13,11.13-6.87,18.46-5.28,22.21.17,36.79.23,36.93a.5.5,0,0,1-.29.65Z" style="fill:#263238"></path><path d="M401.59,379.35s-5.72-8.62,2.53-13.05,9.91-.86,15-4,9-10.91,9.84-6-5,7.76-2.94,10S412.16,383.23,401.59,379.35Z" style="fill:#263238"></path><path d="M397.45,232.53s-4.2-17.32,8.45-16.66S403.37,231.2,397.45,232.53Z" style="fill:#263238"></path><path d="M407.38,246.39s5-15,13.69-11.09S416.29,247.39,407.38,246.39Z" style="fill:#263238"></path><path d="M392.06,246.5s2.33-12.14-7.16-13.14S378.78,243.44,392.06,246.5Z" style="fill:#263238"></path><path d="M396.39,272s-11.86-12.4-17.13-4.3S388.07,278.69,396.39,272Z" style="fill:#263238"></path><path d="M419.14,271.78s3.91-18.71,13.75-11.95S428,274.39,419.14,271.78Z" style="fill:#263238"></path><path d="M426,299.57s-6.08-19.71,7.89-16.42S436.4,295.74,426,299.57Z" style="fill:#263238"></path><path d="M403.79,304.65s-10.82-15-20.31-11.31S380.33,311.67,403.79,304.65Z" style="fill:#263238"></path><path d="M412.13,336.7s12-21.79,20.43-13.45S425.26,341.8,412.13,336.7Z" style="fill:#263238"></path><path d="M397.45,334.19s4.09-17.32-6.1-16.72S383,329,397.45,334.19Z" style="fill:#263238"></path><g style="opacity:0.2;isolation:isolate"><path d="M397.45,232.53s-4.2-17.32,8.45-16.66S403.37,231.2,397.45,232.53Z" style="fill:#fff"></path><path d="M407.38,246.39s5-15,13.69-11.09S416.29,247.39,407.38,246.39Z" style="fill:#fff"></path><path d="M392.06,246.5s2.33-12.14-7.16-13.14S378.78,243.44,392.06,246.5Z" style="fill:#fff"></path><path d="M396.39,272s-11.86-12.4-17.13-4.3S388.07,278.69,396.39,272Z" style="fill:#fff"></path><path d="M419.14,271.78s3.91-18.71,13.75-11.95S428,274.39,419.14,271.78Z" style="fill:#fff"></path><path d="M426,299.57s-6.08-19.71,7.89-16.42S436.4,295.74,426,299.57Z" style="fill:#fff"></path><path d="M403.79,304.65s-10.82-15-20.31-11.31S380.33,311.67,403.79,304.65Z" style="fill:#fff"></path><path d="M412.13,336.7s12-21.79,20.43-13.45S425.26,341.8,412.13,336.7Z" style="fill:#fff"></path><path d="M397.45,334.19s4.09-17.32-6.1-16.72S383,329,397.45,334.19Z" style="fill:#fff"></path></g><path d="M401.1,256a.46.46,0,0,1-.27-.09c-7.12-4.77-11.85-13.08-12.05-13.43a.52.52,0,0,1,.19-.69.51.51,0,0,1,.68.2c.05.08,4.62,8.12,11.31,12.8,1.21-1.87,6-9,9.62-10.83a.5.5,0,1,1,.44.9c-3.85,1.91-9.44,10.81-9.49,10.9a.5.5,0,0,1-.32.23Z" style="fill:#263238"></path><path d="M410.8,280.38a.51.51,0,0,1-.33-.13c-10-8.91-23.68-9.67-23.82-9.68a.5.5,0,0,1,.05-1c.14,0,13.77.76,24,9.57,1.47-2,7.66-10,15.1-13.57a.5.5,0,0,1,.44.9c-8.13,3.95-15,13.6-15.05,13.7a.53.53,0,0,1-.35.21Z" style="fill:#263238"></path><path d="M415.69,312a.52.52,0,0,1-.29-.09c-.14-.1-15-10.29-26.23-11.42a.5.5,0,0,1-.45-.55.49.49,0,0,1,.55-.44c10.76,1.07,24.23,9.91,26.42,11.39,7.74-5.48,14.72-20.06,14.79-20.2a.5.5,0,0,1,.9.42c-.29.63-7.33,15.32-15.41,20.8A.49.49,0,0,1,415.69,312Z" style="fill:#263238"></path><path d="M404.12,343.29a.49.49,0,0,1-.28-.09c-5.58-3.81-12-19.1-12.24-19.75a.5.5,0,1,1,.92-.39c.07.16,6.27,15,11.53,19.05a34.92,34.92,0,0,1,18-9.58.51.51,0,0,1,.6.38.52.52,0,0,1-.39.6c-11.65,2.5-17.66,9.53-17.71,9.6A.53.53,0,0,1,404.12,343.29Z" style="fill:#263238"></path><path d="M402.47,377.3s-4.91-7.81-10.45-8.92-7.92-7.49-10-3.65S385.65,381.28,402.47,377.3Z" style="fill:#263238"></path><polygon points="379.49 376.06 381.15 390.37 381.37 392.26 382.06 398.26 382.56 402.5 382.88 405.26 384.49 419.18 425.93 419.18 427.54 405.26 427.86 402.5 428.36 398.26 429.05 392.26 429.27 390.37 430.93 376.06 379.49 376.06" style="fill:#FF7F50"></polygon><polygon points="382.06 398.26 382.56 402.5 427.86 402.5 428.36 398.26 382.06 398.26" style="fill:#fff;opacity:0.4;isolation:isolate"></polygon><polygon points="382.88 405.26 384.49 419.18 425.93 419.18 427.54 405.26 382.88 405.26" style="fill:#fff;opacity:0.4;isolation:isolate"></polygon><polygon points="381.15 390.37 381.37 392.26 429.05 392.26 429.27 390.37 381.15 390.37" style="fill:#fff;opacity:0.4;isolation:isolate"></polygon></g><g id="freepik--trash-bin--inject-91"><rect x="75.88" y="349.85" width="33.78" height="23.61" style="fill:#263238"></rect><path d="M65,344.5v74.68h46.63V344.5Zm41.54,22.06H91.74v-8.94a3.76,3.76,0,0,1,3.77-3.76h7.29a3.76,3.76,0,0,1,3.76,3.76Z" style="fill:#FF7F50"></path><path d="M65,344.5v74.68h46.63V344.5Zm41.54,22.06H91.74v-8.94a3.76,3.76,0,0,1,3.77-3.76h7.29a3.76,3.76,0,0,1,3.76,3.76Z" style="fill:#fff;opacity:0.6000000000000001;isolation:isolate"></path><rect x="65.02" y="344.5" width="20" height="74.68" style="fill:#fff;opacity:0.4;isolation:isolate"></rect><rect x="63.82" y="340.56" width="48.93" height="7.22" style="fill:#FF7F50"></rect><rect x="63.82" y="340.56" width="22.58" height="7.22" style="fill:#fff;opacity:0.2;isolation:isolate"></rect></g><g id="freepik--character-1--inject-91"><path d="M231.47,216.11l7.77,1s2.62-.39,3.59.3,6.73,9.26,6.17,10-6.44,2.86-6.44,2.86-4.72-7.45-4.75-7.72-.18-2-.18-2l-8-.77Z" style="fill:#e4897b"></path><path d="M205.56,189c3.35,1.57,10.88,21.85,10.88,21.85l19.72,5.47L235,220.7s-18.39,0-21.34-1.59-10.78-15.36-10.78-15.36Z" style="fill:#FF7F50"></path><path d="M236.16,216.31,235,220.7s-18.39,0-21.33-1.59c-1.33-.72-3.65-3.9-5.79-7.18-2.63-4-5-8.18-5-8.18l.58-3.22,2.1-11.54c3.35,1.56,10.88,21.85,10.88,21.85Z" style="fill:#fff;opacity:0.2;isolation:isolate"></path><path d="M207.88,211.93c-2.63-4-5-8.18-5-8.18l.58-3.22a4.2,4.2,0,0,1,2-2.34C206,197.92,209.58,205,207.88,211.93Z" style="opacity:0.2;isolation:isolate"></path><path d="M174.78,152.39s-.72-2.94,3.34-6.45,19.49-5.71,24.38,3,1,18.71.39,21.28-.3,7.34,3.12,8.67c0,0-23.28,6-29.75-3.47S167.84,151.55,174.78,152.39Z" style="fill:#2e353a"></path><path d="M195,183.05c-1.32-2.26-11.84-5.06-15.63-4.15l-.19,9.57L194,193.65S197.22,186.86,195,183.05Z" style="fill:#FF7F50"></path><polygon points="196.14 234.41 205.95 189.82 167.34 180.34 161.62 227.87 196.14 234.41" style="fill:#263238"></polygon><path d="M191.07,240.28s15.19,56.79,19.87,80.22c6.12,30.57,25,74.55,25,74.55l-6,2.06s-24.64-36.71-31.5-70.91c-19.94-34-24.64-77.29-24.64-77.29Z" style="fill:#e4897b"></path><path d="M248.44,408.14a9.12,9.12,0,0,0-3.23-.57h0s-4-1.94-8.37-10.31l-4.22.29a3.5,3.5,0,0,0-3.07,2.57,2.06,2.06,0,0,0-.08.6,23.79,23.79,0,0,0,.56,3,84.76,84.76,0,0,0,3.22,9.75l.71-.24-1.78-6.2c-.6-2.11,1.81-.21,3,1.87s3,4.13,7.56,2.71C248.08,409.94,250.22,409,248.44,408.14Z" style="fill:#2e353a"></path><path d="M177.44,242.12s-2.16,58.75-4.57,82.52c-3.13,31,2,78.59,2,78.59l-6.38.2s-12.77-42.33-9.29-77c-9.08-38.33-.84-81.13-.84-81.13Z" style="fill:#e4897b"></path><path d="M184.57,416.82a9.11,9.11,0,0,0-3-1.19h0s-3.5-2.68-6.18-11.76l-4.2-.54a3.48,3.48,0,0,0-3.51,1.92,1.77,1.77,0,0,0-.19.56,24.2,24.2,0,0,0-.05,3.07,84.19,84.19,0,0,0,1.24,10.19l.74-.09-.53-6.43c-.17-2.19,1.82.14,2.59,2.42s2.11,4.63,6.88,4.14C183.87,418.51,186.15,418,184.57,416.82Z" style="fill:#2e353a"></path><path d="M189.46,191.6c-7.55-3.2-9-7.21-9-7.21,6.28-3.29,4.44-12.58,4.44-12.58l8.93,4.41a28.86,28.86,0,0,0-1.48,3.87c-1.68,5.7.89,6.48.89,6.48C194.06,190.14,189.46,191.6,189.46,191.6Z" style="fill:#e4897b"></path><path d="M193.87,176.22a28.86,28.86,0,0,0-1.48,3.87c-6.37-1.79-7.45-8.28-7.45-8.28Z" style="opacity:0.2;isolation:isolate"></path><path d="M186.46,149c8-2.85,12.15.53,15.68,8.6,4.4,10.09,4.72,18.26-6.11,19.61C181.32,179,173.12,153.69,186.46,149Z" style="fill:#e4897b"></path><path d="M196.78,159a18.18,18.18,0,0,0,3.52,2.5,2.34,2.34,0,0,1-1.79,1.66Z" style="fill:#de5753"></path><path d="M186.49,157.28a.36.36,0,0,1-.36-.3.37.37,0,0,1,.29-.42,4.09,4.09,0,0,0,2.86-2.12.36.36,0,0,1,.68.26,4.7,4.7,0,0,1-3.41,2.57Z" style="fill:#2e353a"></path><path d="M196.73,152.35a5.16,5.16,0,0,1-1.59-.25.37.37,0,0,1-.25-.45.37.37,0,0,1,.46-.24,3.62,3.62,0,0,0,3.13-.24.36.36,0,0,1,.44.58A3.89,3.89,0,0,1,196.73,152.35Z" style="fill:#2e353a"></path><path d="M182.48,165.61s1.42-7.93-1-12.83c0,0,13.61-12.16,20.14,3.73,0,0-3.54-14.91-17.47-10.32s-6.69,24.77,2.58,28.26C186.77,174.45,181.63,170.56,182.48,165.61Z" style="fill:#2e353a"></path><path d="M184.4,166.84a3.74,3.74,0,0,0-4.94-1.87c-2.39,1.15-1.77,6.69,4.86,5.72C185.28,170.55,185.47,169.5,184.4,166.84Z" style="fill:#e4897b"></path><path d="M192.28,158.77l-.88.77c-.26-.47-.68-.75-1-.62s-.58.78-.35,1.41a2.55,2.55,0,0,0,.17.33c-.19-.6-.06-1.28.37-1.34s.56.48.56.48a.66.66,0,0,0,.41,0l0,0v0C192.1,159.69,192.28,158.77,192.28,158.77Z" style="fill:#263238"></path><path d="M200.5,155.88l-.88.77c-.26-.48-.69-.76-1-.63s-.58.79-.35,1.41a1.8,1.8,0,0,0,.17.34c-.19-.61-.06-1.28.36-1.34s.57.47.57.47a.67.67,0,0,0,.41,0l0,0v0C200.31,156.8,200.5,155.88,200.5,155.88Z" style="fill:#263238"></path><path d="M199.89,165.8a25.51,25.51,0,0,0-1.23,3.46l-.64-.07c-2.92-.35-4.15-1.47-4.64-2.61a3.75,3.75,0,0,1-.26-1.78,3.48,3.48,0,0,1,.21-1c1.43,1.11,4.12,1.64,5.57,1.86C199.51,165.76,199.89,165.8,199.89,165.8Z" style="fill:#263238"></path><path d="M198.9,165.66l-.39,1c-2.74-.34-4.63-.94-5.39-1.88a3.48,3.48,0,0,1,.21-1C194.76,164.91,197.45,165.44,198.9,165.66Z" style="fill:#fff"></path><path d="M198,169.19c-2.92-.35-4.15-1.47-4.64-2.61a9.33,9.33,0,0,1,3.16,1A3.64,3.64,0,0,1,198,169.19Z" style="fill:#de5753"></path><path d="M199,160.71c-.22.63.54.61.08.83s-.39.81.49,1,1.37-1.48,1.37-1.48S199.23,160.15,199,160.71Z" style="fill:#FF7F50"></path><path d="M194,230.38l18.53,80.89s-20.22,8.93-57.19,5.78c0,0-9-43.79,3.39-79l.4-3.34Z" style="fill:#263238"></path><path d="M235.9,395.05s6.11,10.63,9.31,12.52c0,0-3.88,2.74-8.53-2.34-6-6.57-7.21-4.51-7.21-4.51a20.68,20.68,0,0,1,.39-3.61C230.52,394.79,235.9,395.05,235.9,395.05Z" style="fill:#e4897b"></path><path d="M174.22,400.64s1.45,4.12,3.38,8.65a19.44,19.44,0,0,0,3.92,6.34s-3.49,1.08-5.34-1.12-4.94-10.12-8.55-9.26a8.43,8.43,0,0,1,.83-1.82C169,402.54,174.22,400.64,174.22,400.64Z" style="fill:#e4897b"></path><polygon points="196.27 231.28 196.13 237.89 159.51 234.21 161.27 227.34 196.27 231.28"></polygon><path d="M178.15,236.45c.86.09,10,1.59,10.49,1.05s.62-7.09.62-7.09c-.65-.91-10.24-1.78-10.7-1.42S177.29,236.36,178.15,236.45Zm1.3-6.71c.38-.29,8.26.43,8.79,1.17,0,0-.1,5.39-.51,5.83s-7.91-.79-8.61-.86S179.07,230,179.45,229.74Z" style="fill:#fff"></path><path d="M180.05,231.7l1.89.19a.7.7,0,0,1,.62.71v0a.69.69,0,0,1-.77.68l-1.9-.22a.7.7,0,0,1,.16-1.39Z" style="fill:#fff"></path><path d="M179.35,178.9l5.35,5-3,3.83A160.93,160.93,0,0,1,171.28,225l-16.16-5.67s7.09-32.78,12.37-39.44l9.77,2.16Z" style="fill:#FF7F50"></path><path d="M184.71,184l-3,3.83A161.52,161.52,0,0,1,171.28,225l-6.7-2.36-9.46-3.31s1.21-5.72,3-12.72c.44-1.7.91-3.48,1.4-5.26.41-1.52.89-3.19,1.41-4.88,2.05-6.79,4.64-14.14,6.57-16.57l9.76,2.15,2.1-3.12Z" style="fill:#fff;opacity:0.2;isolation:isolate"></path><path d="M195,183.05l-.38,3.51.86,2.95s2.79,21.92-3.59,39.46l8,1.11S208.53,199,205.56,189l-9.17-3Z" style="fill:#FF7F50"></path><path d="M195,183.05l-.38,3.51.86,2.95s2.79,21.92-3.59,39.46l8,1.11S208.53,199,205.56,189l-9.17-3Z" style="fill:#fff;opacity:0.2;isolation:isolate"></path><path d="M164,197.09s-1.09,6.19-5.88,9.48c.44-1.7.91-3.48,1.4-5.26.41-1.52.89-3.19,1.41-4.88A5.14,5.14,0,0,1,164,197.09Z" style="opacity:0.2;isolation:isolate"></path><path d="M149,184.75l.15-5.25s2.44-1.28,2.15-2.4-6.29-8.92-8-9.11-4.61,3.21-4.15,4.4,6,7.48,6,7.48l-.3,5.26Z" style="fill:#e4897b"></path><path d="M167.49,179.85c-5.4-2.29-15.52,16.84-17,16.59s-.68-14.53-.68-14.53l-6.07.13s-2,21,.87,24.68,18.59-8.47,18.59-8.47,3.8-5.64,5-10.34A11.79,11.79,0,0,0,167.49,179.85Z" style="fill:#FF7F50"></path><path d="M167.49,179.85c-5.4-2.29-15.52,16.84-17,16.59s-.68-14.53-.68-14.53l-6.07.13s-2,21,.87,24.68,18.59-8.47,18.59-8.47,3.8-5.64,5-10.34A11.79,11.79,0,0,0,167.49,179.85Z" style="fill:#fff;opacity:0.2;isolation:isolate"></path></g><g id="freepik--character-2--inject-91"><g id="freepik--group--inject-91"><path d="M323.81,134.94a.71.71,0,0,0,1,.45l7.48-3.25a1,1,0,0,0,.52-1.12l-4.75-15.48A.81.81,0,0,0,327,115l-7.48,3.25a1,1,0,0,0-.47,1.22Z" style="fill:#263238"></path><path d="M319.84,119l4.8,15.64a.61.61,0,0,0,.89.45l6.34-2.76c.43-.18,1.1-.76,1-1.2L328,115.43c-.13-.44-1-.46-1.43-.27l-6.34,2.76A.83.83,0,0,0,319.84,119Z" style="fill:#fff;opacity:0.5"></path><path d="M330.16,132.93c-2.84,3.91-7.46,10.24-7.46,10.24l6.52,3.25s4.41-7.1,6.23-10.29a9.38,9.38,0,0,0,.21-8.95,3.53,3.53,0,0,0-.38-.62c-.57-.62-9.08-5.91-10.41-4.24s.49,5.48.39,7.06C325.21,130.28,327.86,131.79,330.16,132.93Z" style="fill:#ebb376"></path><path d="M281.45,163.69c23.4-5.42,37.26-17.67,44.48-26l5.81,6.48S320,158,314.86,162.15c-6.16,5-19.68,12.58-30.26,15.46Z" style="fill:#FF7F50"></path><path d="M303,213.81s-28.87,17.85-61.62,17.7l1.63-56,40.43-3.8Z" style="fill:#FF7F50"></path><path d="M303,213.81s-28.87,17.85-61.62,17.7l1.63-56,40.43-3.8Z" style="opacity:0.2;isolation:isolate"></path><path d="M253.26,409.24h-10.6a.79.79,0,0,0-.74.6l-1.72,7.77a1.29,1.29,0,0,0,1,1.53,1.43,1.43,0,0,0,.29,0c3.43-.06,5.92-.27,10.23-.27,2.65,0,10.66.28,14.32.28s4.14-3.62,2.64-3.95c-6.73-1.47-11.79-3.5-13.94-5.43A2.1,2.1,0,0,0,253.26,409.24Z" style="fill:#263238"></path><path d="M333.52,409h-10.6a.77.77,0,0,0-.74.6l-1.72,7.77a1.28,1.28,0,0,0,1,1.52,1.43,1.43,0,0,0,.29,0c3.43-.06,5.92-.27,10.23-.27,2.65,0,10.66.28,14.32.28s4.14-3.62,2.64-3.95c-6.73-1.47-11.79-3.5-13.94-5.43A2.13,2.13,0,0,0,333.52,409Z" style="fill:#263238"></path><path d="M253.26,409.24h-10.6a.79.79,0,0,0-.74.6l-1.72,7.77a1.29,1.29,0,0,0,1,1.53,1.43,1.43,0,0,0,.29,0c3.43-.06,5.92-.27,10.23-.27,2.65,0,10.66.28,14.32.28s4.14-3.62,2.64-3.95c-6.73-1.47-11.79-3.5-13.94-5.43A2.1,2.1,0,0,0,253.26,409.24Z" style="fill:#fff;opacity:0.30000000000000004"></path><path d="M333.52,409h-10.6a.77.77,0,0,0-.74.6l-1.72,7.77a1.28,1.28,0,0,0,1,1.52,1.43,1.43,0,0,0,.29,0c3.43-.06,5.92-.27,10.23-.27,2.65,0,10.66.28,14.32.28s4.14-3.62,2.64-3.95c-6.73-1.47-11.79-3.5-13.94-5.43A2.13,2.13,0,0,0,333.52,409Z" style="fill:#fff;opacity:0.30000000000000004"></path><path d="M225.38,191.14,224.22,185s2.4-2.28,2.13-4.39-11-5.58-12.87-5.72-1.17,7.56-.59,9,7,3.09,7,3.09l.81,6.51Z" style="fill:#ebb376"></path><path d="M337.44,409.25l-15.26.31s-1.81-87.48-9-101.63c-4.67-9.28-18.57-24.74-27.59-34.3-4.76-5-8.16-8.44-8.16-8.44s4.66,48.6,3.38,60.91S256.34,411,256.34,411l-16.14-.7s20.05-71.62,19.38-85.67-9.92-58.92-12.09-70.1-1.36-29.83-1.36-29.83l40.4-10.71L294,237.25s32,35.55,39.43,56.44S337.44,409.25,337.44,409.25Z" style="fill:#263238"></path><path d="M240.19,173.61s8.54-5.72,17.36-7.44,23.9-2.48,23.9-2.48l7.76,54.79-44.56,10.85Z" style="fill:#FF7F50"></path><path d="M240.19,173.61s8.54-5.72,17.36-7.44,23.9-2.48,23.9-2.48l7.76,54.79-44.56,10.85Z" style="fill:#fff;opacity:0.7000000000000001;isolation:isolate"></path><polygon points="265.1 180.75 276.58 197.36 259.08 201.9 265.1 180.75" style="opacity:0.2;isolation:isolate"></polygon><polygon points="276.58 197.36 277.24 188.99 255.53 193.43 259.08 201.9 276.58 197.36" style="opacity:0.2;isolation:isolate"></polygon><path d="M268.44,164.78a240.65,240.65,0,0,1,29.89,56.12l6.52-7.4-23.4-49.81Z" style="fill:#FF7F50"></path><polygon points="247.12 169.78 243.39 234.02 237.07 232.98 236.61 217.96 236.17 203.87 235.21 172.75 247.12 169.78" style="fill:#FF7F50"></polygon><path d="M279.22,181.2s7.43-23.88-22.33-22c-18.91,1.21-22.7,17.71-10.76,27.5,0,0,1-8.77,2.36-16.6.54-3.12,18.79-5.54,20.95-2.32C274.82,175.79,279.22,181.2,279.22,181.2Z" style="fill:#FF7F50"></path><path d="M279.22,181.2s7.43-23.88-22.33-22c-18.91,1.21-22.7,17.71-10.76,27.5,0,0,1-8.77,2.36-16.6.54-3.12,18.79-5.54,20.95-2.32C274.82,175.79,279.22,181.2,279.22,181.2Z" style="fill:#fff;opacity:0.4;isolation:isolate"></path><path d="M249.66,169.8c4,3.64,13.82,2.3,13.82,2.3s6.12-1.68,4.84-3.59c-3.61-.6-5.36-2.28-6.08-4.44a10.36,10.36,0,0,1-.36-4.12,20.11,20.11,0,0,1,.3-2.3l-12.13-9C251.64,154.6,253.58,165.5,249.66,169.8Z" style="fill:#ebb376"></path><path d="M252.85,154.38c.48,7.27,6.46,9.28,9.39,9.69a10.36,10.36,0,0,1-.36-4.12Z" style="opacity:0.2;isolation:isolate"></path><path d="M271.37,130.41s3.29,11.35-2.27,16.62-8.41-16.3-8.41-16.3Z" style="fill:#263238"></path><path d="M271.45,153.56a11.92,11.92,0,0,1-.41,1.19,11.51,11.51,0,0,1-2.35,3.7,11.72,11.72,0,0,1-3.61,2.63,10.85,10.85,0,0,1-7.82.61,10.6,10.6,0,0,1-4.79-3.09c-4.09-4.45-3.8-9.39-4-17.79a11.37,11.37,0,0,1,1-5.24,11.49,11.49,0,0,1,15.23-5.65C272.86,133.57,273.54,146.08,271.45,153.56Z" style="fill:#ebb376"></path><path d="M261.14,143.63c-.07.68.31,1.25.77,1.27s.82-.53.85-1.21-.32-1.25-.76-1.27S261.17,142.94,261.14,143.63Z" style="fill:#263238"></path><path d="M268.87,143.93c-.07.67.32,1.25.76,1.26s.83-.53.86-1.21-.32-1.25-.76-1.26S268.89,143.28,268.87,143.93Z" style="fill:#263238"></path><path d="M266.4,144.17a24.71,24.71,0,0,0,3,6,4,4,0,0,1-3.3.49Z" style="fill:#d58745"></path><path d="M271.86,140.73a.42.42,0,0,1-.42,0,3.26,3.26,0,0,0-2.87-.45.39.39,0,0,1-.52-.21.39.39,0,0,1,.21-.52h0a4,4,0,0,1,3.62.51.41.41,0,0,1,.13.55h0A.57.57,0,0,1,271.86,140.73Z" style="fill:#263238"></path><path d="M259.73,140.49a.43.43,0,0,1-.22-.09.4.4,0,0,1,.06-.56h0a4,4,0,0,1,3.59-.77.39.39,0,0,1,.25.5h0a.41.41,0,0,1-.51.25h0a3.26,3.26,0,0,0-2.83.66A.4.4,0,0,1,259.73,140.49Z" style="fill:#263238"></path><path d="M255,130.57l.49,3.7a2.77,2.77,0,0,0-1.35,3.49c1.23,3.1-.49,7.94-2.86,9.89,0,0-.09-1.34-1.22-1s-.76,7.35,1.5,10.68c0,0-3.39-3-5.36-10.35-1.82-6.81-2.1-12.49-.72-15.14Z" style="fill:#263238"></path><path d="M244.56,147.55a8,8,0,0,0,4.43,4.21c2.62,1,4.18-1.3,3.67-3.9-.48-2.31-2.41-5.69-5.14-5.54S243.54,145.16,244.56,147.55Z" style="fill:#ebb376"></path><path d="M244.94,133.52s-.91-4.85,6.74-8.65,16,.54,21.13-2.73,5.29,10.16-5.63,11.68A86.48,86.48,0,0,1,244.94,133.52Z" style="fill:#263238"></path><path d="M266,153.54a24.69,24.69,0,0,0-2.4,2.78c-.2-.1-.39-.19-.58-.3-2.59-1.38-3.34-2.87-3.38-4.11a3.83,3.83,0,0,1,.4-1.75,3.53,3.53,0,0,1,.55-.86c.94,1.55,3.26,3,4.53,3.75C265.63,153.37,266,153.54,266,153.54Z" style="fill:#263238"></path><path d="M265.1,153.05l-.73.8c-2.44-1.3-4-2.54-4.35-3.69a3.53,3.53,0,0,1,.55-.86C261.51,150.85,263.83,152.32,265.1,153.05Z" style="fill:#fff"></path><path d="M263,156c-2.59-1.38-3.34-2.87-3.38-4.11a9.28,9.28,0,0,1,2.57,2.1A3.51,3.51,0,0,1,263,156Z" style="fill:#de5753"></path><path d="M236.61,218l-.44-14.1c2.66-3.93,5-7,5-7C241.34,197.6,242.36,211.51,236.61,218Z" style="opacity:0.2;isolation:isolate"></path><path d="M235.2,172.74c-3.88.72-3.92,24.85-5,24.47s-2.89-11-2.89-11l-8.91,4.22s-.54,20.93,9.32,23.22,13.69-15.9,13.69-15.9Z" style="fill:#FF7F50"></path><polygon points="206.72 165.8 220.32 186.53 221.02 161.75 206.72 165.8" style="fill:#263238"></polygon><polygon points="221.01 161.74 221.01 161.81 220.94 164.34 220.85 167.35 220.82 168.67 220.69 173.63 220.61 176.36 220.51 179.9 220.47 181.22 220.32 186.53 217.41 182.08 216.68 180.98 214.74 178.02 213.24 175.74 210.53 171.59 209.81 170.49 208.15 167.97 206.76 165.85 206.72 165.8 221.01 161.74" style="fill:#fff;opacity:0.4;isolation:isolate"></polygon><path d="M221,161.81l-2.39,4.3L214.79,164l.3-.54-2.44.7.53.3-2.13,3.83-4.29-2.4,1.39,2.12,2.32,1.3-.67,1.22.73,1.1,1-1.74,3.82,2.13-2.09,3.76,1.5,2.28,2.74,1.54-.8,1.42.73,1.1,1.1-2,2,1.1,0-1.33-1.42-.79,1.52-2.74.08-2.73-3.75-2.11,2.13-3.82,1.76,1,0-1.31-1.21-.69,1.29-2.32Zm-.83,12.88-2.13,3.83-3.82-2.14,2.13-3.82ZM215.91,171l-3.83-2.14,2.14-3.83,3.82,2.14Z" style="fill:#fff;opacity:0.4;isolation:isolate"></path><path d="M207.2,166.51s-4-2-1.84-4.07-.46-4.22,2.32-5.58,4.42-1.58,4.67-2.62,2.78-2.31,3.94.48,1.27.52,3.3,2a4.45,4.45,0,0,1,1.57,4.11s.64.64-.15,1c0,0-2.53,1.5-2.44,1.82s1.29,4.66.48,5.11-1.26-4.75-2.79-4.46-3.29,2.34-4.18,2.12A6.74,6.74,0,0,0,207.2,166.51Z" style="fill:#FF7F50"></path><path d="M285.63,273.63c-4.76-5-8.16-8.44-8.16-8.44v-6.8L285,247.22S285.88,264.22,285.63,273.63Z" style="opacity:0.2;isolation:isolate"></path><path d="M316.67,125.48s-3.86-3.79-2.87-8.52,8.51-3.54,8.51-3.54-3.1-1.72-4.29-8.11c0,0,.27,4.55-1.84,4.42-1.28-.08-5.15-5-5.15-5s1.75,6.47.6,7.26c-2.38,1.63-9.35-1.45-9.35-1.45s7.17,4.25,7.17,6.44-5.44,4-5.44,4,6.06-.39,7.14,1-3.53,5.15-3.53,5.15S312.82,124.49,316.67,125.48Z" style="fill:#FF7F50"></path></g></g></svg>